<mxfile host="app.diagrams.net" modified="2024-03-28T10:32:34.188Z" agent="Mozilla/5.0 (Windows NT 10.0; Win64; x64) AppleWebKit/537.36 (KHTML, like Gecko) Chrome/123.0.0.0 Safari/537.36" etag="iz9QVxn7Lo2v-zcpAqS8" version="24.1.0" type="github">
  <diagram id="R2lEEEUBdFMjLlhIrx00" name="Page-1">
    <mxGraphModel dx="1221" dy="599" grid="1" gridSize="10" guides="1" tooltips="1" connect="1" arrows="1" fold="1" page="1" pageScale="1" pageWidth="850" pageHeight="1100" math="0" shadow="0" extFonts="Permanent Marker^https://fonts.googleapis.com/css?family=Permanent+Marker">
      <root>
        <mxCell id="0" />
        <mxCell id="1" parent="0" />
        <mxCell id="_C7yZmlWgPNIzbnGs5OJ-15" value="&lt;font style=&quot;font-size: 20px;&quot;&gt;Project&lt;/font&gt;" style="rounded=0;whiteSpace=wrap;html=1;" vertex="1" parent="1">
          <mxGeometry x="90" y="80" width="120" height="60" as="geometry" />
        </mxCell>
        <mxCell id="_C7yZmlWgPNIzbnGs5OJ-16" value="" style="endArrow=none;html=1;rounded=0;" edge="1" parent="1">
          <mxGeometry width="50" height="50" relative="1" as="geometry">
            <mxPoint x="210" y="109.5" as="sourcePoint" />
            <mxPoint x="300" y="109.5" as="targetPoint" />
            <Array as="points">
              <mxPoint x="250" y="109.5" />
            </Array>
          </mxGeometry>
        </mxCell>
        <mxCell id="_C7yZmlWgPNIzbnGs5OJ-17" value="&lt;font style=&quot;font-size: 20px;&quot;&gt;client&lt;/font&gt;" style="rounded=0;whiteSpace=wrap;html=1;" vertex="1" parent="1">
          <mxGeometry x="305" y="80" width="120" height="60" as="geometry" />
        </mxCell>
        <mxCell id="_C7yZmlWgPNIzbnGs5OJ-18" value="&lt;font style=&quot;font-size: 20px;&quot;&gt;Budget&lt;/font&gt;" style="rounded=0;whiteSpace=wrap;html=1;" vertex="1" parent="1">
          <mxGeometry x="90" y="210" width="120" height="60" as="geometry" />
        </mxCell>
        <mxCell id="_C7yZmlWgPNIzbnGs5OJ-19" value="" style="endArrow=none;html=1;rounded=0;exitX=0.5;exitY=1;exitDx=0;exitDy=0;entryX=0.5;entryY=0;entryDx=0;entryDy=0;" edge="1" parent="1" source="_C7yZmlWgPNIzbnGs5OJ-15" target="_C7yZmlWgPNIzbnGs5OJ-18">
          <mxGeometry width="50" height="50" relative="1" as="geometry">
            <mxPoint x="110" y="180" as="sourcePoint" />
            <mxPoint x="150" y="200" as="targetPoint" />
            <Array as="points">
              <mxPoint x="150" y="180" />
            </Array>
          </mxGeometry>
        </mxCell>
        <mxCell id="_C7yZmlWgPNIzbnGs5OJ-20" value="N" style="text;html=1;align=center;verticalAlign=middle;resizable=0;points=[];autosize=1;strokeColor=none;fillColor=none;" vertex="1" parent="1">
          <mxGeometry x="205" y="80" width="30" height="30" as="geometry" />
        </mxCell>
        <mxCell id="_C7yZmlWgPNIzbnGs5OJ-21" value="1" style="text;html=1;align=center;verticalAlign=middle;resizable=0;points=[];autosize=1;strokeColor=none;fillColor=none;" vertex="1" parent="1">
          <mxGeometry x="278" y="82" width="30" height="30" as="geometry" />
        </mxCell>
        <mxCell id="_C7yZmlWgPNIzbnGs5OJ-22" value="N" style="text;html=1;align=center;verticalAlign=middle;resizable=0;points=[];autosize=1;strokeColor=none;fillColor=none;rotation=0;" vertex="1" parent="1">
          <mxGeometry x="145" y="138" width="30" height="30" as="geometry" />
        </mxCell>
        <mxCell id="_C7yZmlWgPNIzbnGs5OJ-23" value="1" style="text;html=1;align=center;verticalAlign=middle;resizable=0;points=[];autosize=1;strokeColor=none;fillColor=none;" vertex="1" parent="1">
          <mxGeometry x="145" y="178" width="30" height="30" as="geometry" />
        </mxCell>
        <mxCell id="_C7yZmlWgPNIzbnGs5OJ-24" value="&lt;font style=&quot;font-size: 20px;&quot;&gt;payment&lt;/font&gt;" style="rounded=0;whiteSpace=wrap;html=1;" vertex="1" parent="1">
          <mxGeometry x="515" y="82" width="120" height="60" as="geometry" />
        </mxCell>
        <mxCell id="_C7yZmlWgPNIzbnGs5OJ-25" value="" style="endArrow=none;html=1;rounded=0;" edge="1" parent="1">
          <mxGeometry width="50" height="50" relative="1" as="geometry">
            <mxPoint x="635" y="111.5" as="sourcePoint" />
            <mxPoint x="725" y="111.5" as="targetPoint" />
            <Array as="points">
              <mxPoint x="675" y="111.5" />
            </Array>
          </mxGeometry>
        </mxCell>
        <mxCell id="_C7yZmlWgPNIzbnGs5OJ-26" value="&lt;font style=&quot;font-size: 20px;&quot;&gt;Payment&lt;/font&gt;&lt;div&gt;&lt;font style=&quot;font-size: 20px;&quot;&gt;Method&lt;/font&gt;&lt;/div&gt;" style="rounded=0;whiteSpace=wrap;html=1;" vertex="1" parent="1">
          <mxGeometry x="730" y="82" width="120" height="60" as="geometry" />
        </mxCell>
        <mxCell id="_C7yZmlWgPNIzbnGs5OJ-29" value="N" style="text;html=1;align=center;verticalAlign=middle;resizable=0;points=[];autosize=1;strokeColor=none;fillColor=none;" vertex="1" parent="1">
          <mxGeometry x="630" y="82" width="30" height="30" as="geometry" />
        </mxCell>
        <mxCell id="_C7yZmlWgPNIzbnGs5OJ-30" value="1" style="text;html=1;align=center;verticalAlign=middle;resizable=0;points=[];autosize=1;strokeColor=none;fillColor=none;" vertex="1" parent="1">
          <mxGeometry x="703" y="84" width="30" height="30" as="geometry" />
        </mxCell>
        <mxCell id="_C7yZmlWgPNIzbnGs5OJ-33" value="" style="endArrow=none;html=1;rounded=0;exitX=0.5;exitY=0;exitDx=0;exitDy=0;" edge="1" parent="1" source="_C7yZmlWgPNIzbnGs5OJ-15">
          <mxGeometry width="50" height="50" relative="1" as="geometry">
            <mxPoint x="145" y="70" as="sourcePoint" />
            <mxPoint x="570" y="80" as="targetPoint" />
            <Array as="points">
              <mxPoint x="150" y="40" />
              <mxPoint x="370" y="40" />
              <mxPoint x="480" y="40" />
              <mxPoint x="540" y="40" />
              <mxPoint x="570" y="40" />
            </Array>
          </mxGeometry>
        </mxCell>
        <mxCell id="_C7yZmlWgPNIzbnGs5OJ-34" value="" style="endArrow=none;html=1;rounded=0;" edge="1" parent="1">
          <mxGeometry width="50" height="50" relative="1" as="geometry">
            <mxPoint x="430" y="110" as="sourcePoint" />
            <mxPoint x="515" y="110" as="targetPoint" />
          </mxGeometry>
        </mxCell>
        <mxCell id="_C7yZmlWgPNIzbnGs5OJ-36" value="&lt;font style=&quot;font-size: 20px;&quot;&gt;Employee&lt;/font&gt;" style="rounded=0;whiteSpace=wrap;html=1;" vertex="1" parent="1">
          <mxGeometry x="500" y="212" width="120" height="60" as="geometry" />
        </mxCell>
        <mxCell id="_C7yZmlWgPNIzbnGs5OJ-37" value="" style="endArrow=none;html=1;rounded=0;" edge="1" parent="1">
          <mxGeometry width="50" height="50" relative="1" as="geometry">
            <mxPoint x="621" y="239.5" as="sourcePoint" />
            <mxPoint x="711" y="239.5" as="targetPoint" />
            <Array as="points">
              <mxPoint x="661" y="239.5" />
            </Array>
          </mxGeometry>
        </mxCell>
        <mxCell id="_C7yZmlWgPNIzbnGs5OJ-38" value="&lt;font style=&quot;font-size: 20px;&quot;&gt;Task&lt;/font&gt;" style="rounded=0;whiteSpace=wrap;html=1;" vertex="1" parent="1">
          <mxGeometry x="716" y="210" width="120" height="60" as="geometry" />
        </mxCell>
        <mxCell id="_C7yZmlWgPNIzbnGs5OJ-41" value="1" style="text;html=1;align=center;verticalAlign=middle;resizable=0;points=[];autosize=1;strokeColor=none;fillColor=none;" vertex="1" parent="1">
          <mxGeometry x="616" y="210" width="30" height="30" as="geometry" />
        </mxCell>
        <mxCell id="_C7yZmlWgPNIzbnGs5OJ-42" value="N" style="text;html=1;align=center;verticalAlign=middle;resizable=0;points=[];autosize=1;strokeColor=none;fillColor=none;" vertex="1" parent="1">
          <mxGeometry x="689" y="212" width="30" height="30" as="geometry" />
        </mxCell>
        <mxCell id="_C7yZmlWgPNIzbnGs5OJ-45" value="1" style="text;html=1;align=center;verticalAlign=middle;resizable=0;points=[];autosize=1;strokeColor=none;fillColor=none;" vertex="1" parent="1">
          <mxGeometry x="145" y="58" width="30" height="30" as="geometry" />
        </mxCell>
        <mxCell id="_C7yZmlWgPNIzbnGs5OJ-46" value="N" style="text;html=1;align=center;verticalAlign=middle;resizable=0;points=[];autosize=1;strokeColor=none;fillColor=none;" vertex="1" parent="1">
          <mxGeometry x="545" y="58" width="30" height="30" as="geometry" />
        </mxCell>
        <mxCell id="_C7yZmlWgPNIzbnGs5OJ-47" value="1" style="text;html=1;align=center;verticalAlign=middle;resizable=0;points=[];autosize=1;strokeColor=none;fillColor=none;" vertex="1" parent="1">
          <mxGeometry x="415" y="88" width="30" height="30" as="geometry" />
        </mxCell>
        <mxCell id="_C7yZmlWgPNIzbnGs5OJ-48" value="N" style="text;html=1;align=center;verticalAlign=middle;resizable=0;points=[];autosize=1;strokeColor=none;fillColor=none;" vertex="1" parent="1">
          <mxGeometry x="485" y="88" width="30" height="30" as="geometry" />
        </mxCell>
        <mxCell id="_C7yZmlWgPNIzbnGs5OJ-59" value="&lt;font style=&quot;font-size: 20px;&quot;&gt;Material&lt;/font&gt;" style="rounded=0;whiteSpace=wrap;html=1;" vertex="1" parent="1">
          <mxGeometry x="350" y="210" width="120" height="60" as="geometry" />
        </mxCell>
        <mxCell id="_C7yZmlWgPNIzbnGs5OJ-61" value="" style="endArrow=none;html=1;rounded=0;entryX=0.92;entryY=1.033;entryDx=0;entryDy=0;entryPerimeter=0;exitX=0;exitY=0.667;exitDx=0;exitDy=0;exitPerimeter=0;" edge="1" parent="1" source="_C7yZmlWgPNIzbnGs5OJ-59">
          <mxGeometry width="50" height="50" relative="1" as="geometry">
            <mxPoint x="310" y="260" as="sourcePoint" />
            <mxPoint x="190.4000000000001" y="142.00000000000003" as="targetPoint" />
            <Array as="points">
              <mxPoint x="280" y="250" />
              <mxPoint x="280" y="190" />
              <mxPoint x="190" y="190.02" />
            </Array>
          </mxGeometry>
        </mxCell>
        <mxCell id="_C7yZmlWgPNIzbnGs5OJ-62" value="1" style="text;html=1;align=center;verticalAlign=middle;resizable=0;points=[];autosize=1;strokeColor=none;fillColor=none;" vertex="1" parent="1">
          <mxGeometry x="185" y="138" width="30" height="30" as="geometry" />
        </mxCell>
        <mxCell id="_C7yZmlWgPNIzbnGs5OJ-63" value="N" style="text;html=1;align=center;verticalAlign=middle;resizable=0;points=[];autosize=1;strokeColor=none;fillColor=none;" vertex="1" parent="1">
          <mxGeometry x="315" y="218" width="30" height="30" as="geometry" />
        </mxCell>
        <mxCell id="_C7yZmlWgPNIzbnGs5OJ-64" value="&lt;font style=&quot;font-size: 20px;&quot;&gt;Expense&lt;/font&gt;" style="rounded=0;whiteSpace=wrap;html=1;" vertex="1" parent="1">
          <mxGeometry x="102" y="313" width="120" height="60" as="geometry" />
        </mxCell>
        <mxCell id="_C7yZmlWgPNIzbnGs5OJ-65" value="" style="endArrow=none;html=1;rounded=0;" edge="1" parent="1">
          <mxGeometry width="50" height="50" relative="1" as="geometry">
            <mxPoint x="100" y="360" as="sourcePoint" />
            <mxPoint x="90" y="110" as="targetPoint" />
            <Array as="points">
              <mxPoint x="80" y="360" />
              <mxPoint x="60" y="360" />
              <mxPoint x="60" y="240" />
              <mxPoint x="60" y="110" />
            </Array>
          </mxGeometry>
        </mxCell>
        <mxCell id="_C7yZmlWgPNIzbnGs5OJ-66" value="1" style="text;html=1;align=center;verticalAlign=middle;resizable=0;points=[];autosize=1;strokeColor=none;fillColor=none;" vertex="1" parent="1">
          <mxGeometry x="65" y="108" width="30" height="30" as="geometry" />
        </mxCell>
        <mxCell id="_C7yZmlWgPNIzbnGs5OJ-67" value="N" style="text;html=1;align=center;verticalAlign=middle;resizable=0;points=[];autosize=1;strokeColor=none;fillColor=none;" vertex="1" parent="1">
          <mxGeometry x="72" y="335" width="30" height="30" as="geometry" />
        </mxCell>
        <mxCell id="_C7yZmlWgPNIzbnGs5OJ-68" value="&lt;font style=&quot;font-size: 20px;&quot;&gt;Role&lt;/font&gt;" style="rounded=0;whiteSpace=wrap;html=1;" vertex="1" parent="1">
          <mxGeometry x="345" y="322" width="120" height="60" as="geometry" />
        </mxCell>
        <mxCell id="_C7yZmlWgPNIzbnGs5OJ-69" value="" style="endArrow=none;html=1;rounded=0;" edge="1" parent="1">
          <mxGeometry width="50" height="50" relative="1" as="geometry">
            <mxPoint x="466" y="349.5" as="sourcePoint" />
            <mxPoint x="556" y="349.5" as="targetPoint" />
            <Array as="points">
              <mxPoint x="506" y="349.5" />
            </Array>
          </mxGeometry>
        </mxCell>
        <mxCell id="_C7yZmlWgPNIzbnGs5OJ-70" value="&lt;font style=&quot;font-size: 20px;&quot;&gt;User&lt;/font&gt;" style="rounded=0;whiteSpace=wrap;html=1;" vertex="1" parent="1">
          <mxGeometry x="561" y="320" width="120" height="60" as="geometry" />
        </mxCell>
        <mxCell id="_C7yZmlWgPNIzbnGs5OJ-71" value="1" style="text;html=1;align=center;verticalAlign=middle;resizable=0;points=[];autosize=1;strokeColor=none;fillColor=none;" vertex="1" parent="1">
          <mxGeometry x="461" y="320" width="30" height="30" as="geometry" />
        </mxCell>
        <mxCell id="_C7yZmlWgPNIzbnGs5OJ-72" value="N" style="text;html=1;align=center;verticalAlign=middle;resizable=0;points=[];autosize=1;strokeColor=none;fillColor=none;" vertex="1" parent="1">
          <mxGeometry x="534" y="322" width="30" height="30" as="geometry" />
        </mxCell>
        <mxCell id="_C7yZmlWgPNIzbnGs5OJ-73" value="" style="endArrow=none;html=1;rounded=0;entryX=0;entryY=0.167;entryDx=0;entryDy=0;entryPerimeter=0;" edge="1" parent="1" target="_C7yZmlWgPNIzbnGs5OJ-15">
          <mxGeometry width="50" height="50" relative="1" as="geometry">
            <mxPoint x="80" y="450" as="sourcePoint" />
            <mxPoint x="90" y="85" as="targetPoint" />
            <Array as="points">
              <mxPoint x="80" y="450" />
              <mxPoint x="30" y="450" />
              <mxPoint x="32" y="210" />
              <mxPoint x="30" y="90" />
            </Array>
          </mxGeometry>
        </mxCell>
        <mxCell id="_C7yZmlWgPNIzbnGs5OJ-74" value="&lt;font style=&quot;font-size: 20px;&quot;&gt;Design&lt;/font&gt;" style="rounded=0;whiteSpace=wrap;html=1;" vertex="1" parent="1">
          <mxGeometry x="80" y="420" width="120" height="60" as="geometry" />
        </mxCell>
        <mxCell id="_C7yZmlWgPNIzbnGs5OJ-75" value="&lt;font style=&quot;font-size: 20px;&quot;&gt;Temporary&amp;nbsp;&lt;/font&gt;&lt;div&gt;&lt;font style=&quot;font-size: 20px;&quot;&gt;Salary&lt;/font&gt;&lt;/div&gt;" style="rounded=0;whiteSpace=wrap;html=1;" vertex="1" parent="1">
          <mxGeometry x="341" y="470" width="120" height="60" as="geometry" />
        </mxCell>
        <mxCell id="_C7yZmlWgPNIzbnGs5OJ-76" value="&lt;font style=&quot;font-size: 20px;&quot;&gt;Temporary&amp;nbsp;&lt;/font&gt;&lt;div&gt;&lt;font style=&quot;font-size: 20px;&quot;&gt;Employee&lt;/font&gt;&lt;/div&gt;" style="rounded=0;whiteSpace=wrap;html=1;" vertex="1" parent="1">
          <mxGeometry x="583" y="470" width="120" height="60" as="geometry" />
        </mxCell>
        <mxCell id="_C7yZmlWgPNIzbnGs5OJ-78" value="&lt;span style=&quot;font-size: 20px;&quot;&gt;Account&lt;/span&gt;" style="rounded=0;whiteSpace=wrap;html=1;" vertex="1" parent="1">
          <mxGeometry x="72" y="520" width="120" height="60" as="geometry" />
        </mxCell>
        <mxCell id="_C7yZmlWgPNIzbnGs5OJ-79" value="" style="endArrow=none;html=1;rounded=0;" edge="1" parent="1">
          <mxGeometry width="50" height="50" relative="1" as="geometry">
            <mxPoint x="463" y="500" as="sourcePoint" />
            <mxPoint x="578" y="500" as="targetPoint" />
          </mxGeometry>
        </mxCell>
        <mxCell id="_C7yZmlWgPNIzbnGs5OJ-80" value="1" style="text;html=1;align=center;verticalAlign=middle;resizable=0;points=[];autosize=1;strokeColor=none;fillColor=none;" vertex="1" parent="1">
          <mxGeometry x="55" y="448" width="30" height="30" as="geometry" />
        </mxCell>
        <mxCell id="_C7yZmlWgPNIzbnGs5OJ-81" value="N" style="text;html=1;align=center;verticalAlign=middle;resizable=0;points=[];autosize=1;strokeColor=none;fillColor=none;" vertex="1" parent="1">
          <mxGeometry x="65" y="68" width="30" height="30" as="geometry" />
        </mxCell>
      </root>
    </mxGraphModel>
  </diagram>
</mxfile>
